<mxfile host="Electron" agent="Mozilla/5.0 (Windows NT 10.0; Win64; x64) AppleWebKit/537.36 (KHTML, like Gecko) draw.io/28.2.5 Chrome/138.0.7204.251 Electron/37.6.1 Safari/537.36" version="28.2.5">
  <diagram name="Page-1" id="lZ-ejCGxtwIsZ3qXJpxw">
    <mxGraphModel dx="1139" dy="573" grid="0" gridSize="10" guides="1" tooltips="1" connect="1" arrows="1" fold="1" page="1" pageScale="1" pageWidth="850" pageHeight="1100" math="0" shadow="0">
      <root>
        <mxCell id="0" />
        <mxCell id="1" parent="0" />
        <mxCell id="HLW3MYWPXs-JLA7aMpWk-1" value="Admin" style="shape=umlActor;verticalLabelPosition=bottom;verticalAlign=top;html=1;outlineConnect=0;" vertex="1" parent="1">
          <mxGeometry x="179" y="137" width="30" height="60" as="geometry" />
        </mxCell>
        <mxCell id="HLW3MYWPXs-JLA7aMpWk-2" value="" style="endArrow=classic;html=1;rounded=0;entryX=0.057;entryY=0.719;entryDx=0;entryDy=0;entryPerimeter=0;" edge="1" parent="1" target="HLW3MYWPXs-JLA7aMpWk-3">
          <mxGeometry width="50" height="50" relative="1" as="geometry">
            <mxPoint x="210" y="162" as="sourcePoint" />
            <mxPoint x="323" y="102" as="targetPoint" />
          </mxGeometry>
        </mxCell>
        <mxCell id="HLW3MYWPXs-JLA7aMpWk-3" value="" style="ellipse;whiteSpace=wrap;html=1;" vertex="1" parent="1">
          <mxGeometry x="313" y="40" width="209" height="80" as="geometry" />
        </mxCell>
        <mxCell id="HLW3MYWPXs-JLA7aMpWk-4" value="Kelola Akun Game" style="text;html=1;align=center;verticalAlign=middle;whiteSpace=wrap;rounded=0;" vertex="1" parent="1">
          <mxGeometry x="348" y="65" width="139" height="30" as="geometry" />
        </mxCell>
        <mxCell id="HLW3MYWPXs-JLA7aMpWk-5" value="" style="ellipse;whiteSpace=wrap;html=1;" vertex="1" parent="1">
          <mxGeometry x="323" y="134" width="209" height="80" as="geometry" />
        </mxCell>
        <mxCell id="HLW3MYWPXs-JLA7aMpWk-6" value="" style="endArrow=classic;html=1;rounded=0;entryX=0;entryY=0.5;entryDx=0;entryDy=0;" edge="1" parent="1" source="HLW3MYWPXs-JLA7aMpWk-1" target="HLW3MYWPXs-JLA7aMpWk-5">
          <mxGeometry width="50" height="50" relative="1" as="geometry">
            <mxPoint x="206" y="246" as="sourcePoint" />
            <mxPoint x="323" y="206" as="targetPoint" />
          </mxGeometry>
        </mxCell>
        <mxCell id="HLW3MYWPXs-JLA7aMpWk-7" value="Lihat Riwayat Pembelian" style="text;html=1;align=center;verticalAlign=middle;whiteSpace=wrap;rounded=0;" vertex="1" parent="1">
          <mxGeometry x="358" y="159" width="139" height="30" as="geometry" />
        </mxCell>
        <mxCell id="HLW3MYWPXs-JLA7aMpWk-12" value="" style="endArrow=classic;html=1;rounded=0;entryX=0;entryY=0.5;entryDx=0;entryDy=0;" edge="1" parent="1" target="HLW3MYWPXs-JLA7aMpWk-14">
          <mxGeometry width="50" height="50" relative="1" as="geometry">
            <mxPoint x="210" y="177" as="sourcePoint" />
            <mxPoint x="304" y="406" as="targetPoint" />
          </mxGeometry>
        </mxCell>
        <mxCell id="HLW3MYWPXs-JLA7aMpWk-14" value="" style="ellipse;whiteSpace=wrap;html=1;" vertex="1" parent="1">
          <mxGeometry x="323" y="232" width="209" height="80" as="geometry" />
        </mxCell>
        <mxCell id="HLW3MYWPXs-JLA7aMpWk-15" value="Login Admin" style="text;html=1;align=center;verticalAlign=middle;whiteSpace=wrap;rounded=0;" vertex="1" parent="1">
          <mxGeometry x="358" y="257" width="139" height="30" as="geometry" />
        </mxCell>
        <mxCell id="HLW3MYWPXs-JLA7aMpWk-17" value="" style="ellipse;whiteSpace=wrap;html=1;" vertex="1" parent="1">
          <mxGeometry x="326" y="332" width="209" height="80" as="geometry" />
        </mxCell>
        <mxCell id="HLW3MYWPXs-JLA7aMpWk-18" value="Keluar Program" style="text;html=1;align=center;verticalAlign=middle;whiteSpace=wrap;rounded=0;" vertex="1" parent="1">
          <mxGeometry x="361" y="357" width="139" height="30" as="geometry" />
        </mxCell>
        <mxCell id="HLW3MYWPXs-JLA7aMpWk-19" value="" style="endArrow=classic;html=1;rounded=0;entryX=0;entryY=0.5;entryDx=0;entryDy=0;" edge="1" target="HLW3MYWPXs-JLA7aMpWk-17" parent="1">
          <mxGeometry width="50" height="50" relative="1" as="geometry">
            <mxPoint x="211" y="189" as="sourcePoint" />
            <mxPoint x="302" y="497" as="targetPoint" />
          </mxGeometry>
        </mxCell>
        <mxCell id="HLW3MYWPXs-JLA7aMpWk-24" value="" style="endArrow=classic;html=1;rounded=0;entryX=0;entryY=0.5;entryDx=0;entryDy=0;exitX=1;exitY=1;exitDx=0;exitDy=0;exitPerimeter=0;" edge="1" target="HLW3MYWPXs-JLA7aMpWk-25" parent="1" source="HLW3MYWPXs-JLA7aMpWk-1">
          <mxGeometry width="50" height="50" relative="1" as="geometry">
            <mxPoint x="209" y="290" as="sourcePoint" />
            <mxPoint x="287" y="687" as="targetPoint" />
          </mxGeometry>
        </mxCell>
        <mxCell id="HLW3MYWPXs-JLA7aMpWk-25" value="" style="ellipse;whiteSpace=wrap;html=1;" vertex="1" parent="1">
          <mxGeometry x="334" y="436" width="209" height="80" as="geometry" />
        </mxCell>
        <mxCell id="HLW3MYWPXs-JLA7aMpWk-26" value="Mulai Pembelian" style="text;html=1;align=center;verticalAlign=middle;whiteSpace=wrap;rounded=0;" vertex="1" parent="1">
          <mxGeometry x="372" y="461" width="139" height="30" as="geometry" />
        </mxCell>
        <mxCell id="HLW3MYWPXs-JLA7aMpWk-27" value="User" style="shape=umlActor;verticalLabelPosition=bottom;verticalAlign=top;html=1;outlineConnect=0;" vertex="1" parent="1">
          <mxGeometry x="710" y="295" width="30" height="60" as="geometry" />
        </mxCell>
        <mxCell id="HLW3MYWPXs-JLA7aMpWk-28" value="" style="endArrow=classic;html=1;rounded=0;entryX=1;entryY=0.5;entryDx=0;entryDy=0;" edge="1" parent="1" source="HLW3MYWPXs-JLA7aMpWk-27" target="HLW3MYWPXs-JLA7aMpWk-25">
          <mxGeometry width="50" height="50" relative="1" as="geometry">
            <mxPoint x="475" y="345" as="sourcePoint" />
            <mxPoint x="525" y="295" as="targetPoint" />
          </mxGeometry>
        </mxCell>
        <mxCell id="HLW3MYWPXs-JLA7aMpWk-31" value="" style="endArrow=none;dashed=1;html=1;rounded=0;exitX=1;exitY=0.5;exitDx=0;exitDy=0;" edge="1" parent="1" source="HLW3MYWPXs-JLA7aMpWk-3">
          <mxGeometry width="50" height="50" relative="1" as="geometry">
            <mxPoint x="523" y="204" as="sourcePoint" />
            <mxPoint x="602" y="78" as="targetPoint" />
          </mxGeometry>
        </mxCell>
        <mxCell id="HLW3MYWPXs-JLA7aMpWk-32" value="" style="ellipse;whiteSpace=wrap;html=1;" vertex="1" parent="1">
          <mxGeometry x="602" y="40" width="209" height="80" as="geometry" />
        </mxCell>
        <mxCell id="HLW3MYWPXs-JLA7aMpWk-33" value="Tambahkan Akun Game" style="text;html=1;align=center;verticalAlign=middle;whiteSpace=wrap;rounded=0;" vertex="1" parent="1">
          <mxGeometry x="637" y="65" width="139" height="30" as="geometry" />
        </mxCell>
        <mxCell id="HLW3MYWPXs-JLA7aMpWk-34" value="" style="ellipse;whiteSpace=wrap;html=1;" vertex="1" parent="1">
          <mxGeometry x="607" y="130" width="209" height="80" as="geometry" />
        </mxCell>
        <mxCell id="HLW3MYWPXs-JLA7aMpWk-35" value="Lihat Akun Game" style="text;html=1;align=center;verticalAlign=middle;whiteSpace=wrap;rounded=0;" vertex="1" parent="1">
          <mxGeometry x="642" y="155" width="139" height="30" as="geometry" />
        </mxCell>
        <mxCell id="HLW3MYWPXs-JLA7aMpWk-36" value="" style="endArrow=none;dashed=1;html=1;rounded=0;exitX=1;exitY=0.5;exitDx=0;exitDy=0;entryX=0;entryY=0.5;entryDx=0;entryDy=0;" edge="1" parent="1" source="HLW3MYWPXs-JLA7aMpWk-3" target="HLW3MYWPXs-JLA7aMpWk-34">
          <mxGeometry width="50" height="50" relative="1" as="geometry">
            <mxPoint x="532" y="90" as="sourcePoint" />
            <mxPoint x="612" y="88" as="targetPoint" />
          </mxGeometry>
        </mxCell>
        <mxCell id="HLW3MYWPXs-JLA7aMpWk-37" value="Include" style="text;html=1;align=center;verticalAlign=middle;whiteSpace=wrap;rounded=0;" vertex="1" parent="1">
          <mxGeometry x="547" y="56" width="60" height="30" as="geometry" />
        </mxCell>
        <mxCell id="HLW3MYWPXs-JLA7aMpWk-38" value="Extend" style="text;html=1;align=center;verticalAlign=middle;whiteSpace=wrap;rounded=0;rotation=45;" vertex="1" parent="1">
          <mxGeometry x="562" y="125" width="60" height="30" as="geometry" />
        </mxCell>
      </root>
    </mxGraphModel>
  </diagram>
</mxfile>
